HIERARCHY
ROOT Hips
{
	OFFSET 0.00000 0.00000 0.00000
	CHANNELS 6 Xposition Yposition Zposition Zrotation Yrotation Xrotation 
	JOINT RightUpLegDummy
	{
		OFFSET 0 0 0
		CHANNELS 3 Zrotation Yrotation Xrotation
		JOINT RightUpLeg
		{
			OFFSET -3.52197 -3.41223 0.04002
			CHANNELS 3 Zrotation Yrotation Xrotation
			JOINT RightLeg
			{
				OFFSET 0.00006 -17.42390 1.60435
				CHANNELS 3 Zrotation Yrotation Xrotation
				JOINT RightFoot
				{
					OFFSET 0.06153 -16.50078 -1.63901
					CHANNELS 3 Zrotation Yrotation Xrotation
					JOINT RightToes
					{
						OFFSET 0.00298 -1.73825 3.34613
						CHANNELS 3 Zrotation Yrotation Xrotation
						End Site
						{
							OFFSET 0.00480 -0.05416 3.85043
						}
					}
				}
			}
		}
	}
	JOINT SpineDummy
	{
		OFFSET 0 0 0
		CHANNELS 3 Zrotation Yrotation Xrotation
		JOINT Spine
		{
			OFFSET 0.00000 4.68130 0.00000
			CHANNELS 3 Zrotation Yrotation Xrotation
			JOINT Spine1
			{
				OFFSET -0.00000 10.10138 0.05002
				CHANNELS 3 Zrotation Yrotation Xrotation
				JOINT HEadDummy
				{
					OFFSET 0 0 0
					CHANNELS 3 Zrotation Yrotation Xrotation
					JOINT Head
					{
						OFFSET -0.00000 3.43865 0.00438
						CHANNELS 3 Zrotation Yrotation Xrotation
						End Site
						{
							OFFSET -0.11417 5.02924 0.98962
						}
					}
				}
				JOINT LeftShoulder1Dummy
				{
					OFFSET 0 0 0
					CHANNELS 3 Zrotation Yrotation Xrotation
					JOINT LeftShoulder1
					{
						OFFSET 3.53937 -0.14262 -0.08662
						CHANNELS 3 Zrotation Yrotation Xrotation
						JOINT LeftArm
						{
							OFFSET 4.04833 -0.00133 0.12681
							CHANNELS 3 Zrotation Yrotation Xrotation
							JOINT LeftForeArm
							{
								OFFSET 10.33880 -0.01036 -0.55515
								CHANNELS 3 Zrotation Yrotation Xrotation
								JOINT LeftHand
								{
									OFFSET 8.69677 0.07543 0.40060
									CHANNELS 3 Zrotation Yrotation Xrotation
									End Site
									{
										OFFSET 5.28377 -0.21905 0.59205
									}
								}
							}
						}
					}
				}
				JOINT RightShoulderDummy
				{
					OFFSET 0 0 0
					CHANNELS 3 Zrotation Yrotation Xrotation
					JOINT RightShoulder
					{
						OFFSET -3.53937 -0.14262 -0.08660
						CHANNELS 3 Zrotation Yrotation Xrotation
						JOINT RightArm
						{
							OFFSET -4.04833 -0.00133 0.12683
							CHANNELS 3 Zrotation Yrotation Xrotation
							JOINT RightForeArm
							{
								OFFSET -10.37987 -0.01039 -0.55511
								CHANNELS 3 Zrotation Yrotation Xrotation
								JOINT RightHand
								{
									OFFSET -8.67398 0.07538 0.40058
									CHANNELS 3 Zrotation Yrotation Xrotation
									End Site
									{
										OFFSET -5.24810 -0.21916 0.59204
									}
								}
							}
						}
					}
				}
			}
		}
	}
	JOINT LeftUpLegDummy
	{
		OFFSET 0 0 0
		CHANNELS 3 Zrotation Yrotation Xrotation
		JOINT LeftUpLeg
		{
			OFFSET 3.52197 -3.41223 0.04002
			CHANNELS 3 Zrotation Yrotation Xrotation
			JOINT LeftLeg
			{
				OFFSET -0.00012 -17.42399 1.60337
				CHANNELS 3 Zrotation Yrotation Xrotation
				JOINT LeftFoot
				{
					OFFSET -0.09972 -16.50070 -1.63802
					CHANNELS 3 Zrotation Yrotation Xrotation
					JOINT LeftToes
					{
						OFFSET -0.01575 -1.73823 3.34611
						CHANNELS 3 Zrotation Yrotation Xrotation
						End Site
						{
							OFFSET 0.03150 -0.01868 3.85031
						}
					}
				}
			}
		}
	}
}
MOTION
Frames: 7
Frame Time: 0.033333
5.3761 38.6966 -18.3032 -177.6130 -48.8988 169.9500 0.0000 0.0000 0.0000 -4.9139 -7.0917 -3.9678 -7.3643 -4.7179 50.8214 11.8714 -1.0431 -1.3809 0.0000 -0.0000 0.0000 0.0000 0.0000 0.0000 -0.4593 -0.5344 9.1877 3.1852 -1.1570 0.6890 -0.0000 0.0000 -0.0000 -3.8896 11.8515 5.7117 -0.0000 0.0000 -0.0000 -33.9307 -2.6023 2.4400 -42.9682 -18.3443 -17.8085 -9.6761 4.9642 53.7505 16.3259 -3.3961 -1.2117 -0.0000 0.0000 -0.0000 34.5942 5.1614 3.5190 41.9747 2.5964 -17.4850 10.5271 0.2483 21.3936 -10.1879 2.5224 -0.6734 0.0000 0.0000 0.0000 -5.8489 1.2130 -3.2059 0.4387 7.8013 20.9372 6.6217 0.0655 -11.2980 0.0000 0.0000 -0.0000
4.8505 38.7397 -18.6549 -176.8000 -51.1828 169.1530 0.0000 0.0000 0.0000 -3.8513 -4.2111 -5.8373 -8.0400 -5.7793 47.8989 10.9184 -0.8779 -2.2691 0.0000 -0.0000 0.0000 0.0000 0.0000 0.0000 -0.7392 -0.9830 9.5793 3.9414 -1.7846 0.6017 -0.0000 0.0000 -0.0000 -3.6784 11.6415 5.9231 -0.0000 0.0000 -0.0000 -33.6354 -2.6276 2.4318 -43.4626 -20.1011 -17.0865 -9.8293 4.9713 53.4746 16.1628 -3.5867 -1.2245 -0.0000 0.0000 -0.0000 34.6345 5.1719 3.5268 41.3435 2.5534 -16.3015 10.9319 1.6449 20.9760 -10.2765 2.6478 -0.6899 0.0000 0.0000 0.0000 -5.4880 1.4986 -1.8683 -0.6768 5.5407 20.7732 6.9795 0.1084 -11.9384 0.0000 0.0000 -0.0000
4.3198 38.7875 -19.0036 -176.1290 -53.3534 168.5460 0.0000 0.0000 0.0000 -3.0349 -0.9653 -7.5281 -7.9961 -6.6843 43.7895 10.2263 -0.7088 -3.5749 0.0000 -0.0000 0.0000 0.0000 0.0000 0.0000 -0.9974 -1.3036 9.7546 4.5033 -2.2562 0.7193 -0.0000 0.0000 -0.0000 -3.4019 11.3243 5.7197 -0.0000 0.0000 -0.0000 -33.5200 -2.6352 2.4277 -43.8194 -21.6226 -15.7073 -10.4429 4.9969 52.4406 16.0735 -3.7420 -1.2380 -0.0000 0.0000 -0.0000 34.7867 5.2000 3.5517 40.6962 2.5980 -15.4710 11.1783 2.8017 20.7430 -11.1696 2.5757 -0.7455 0.0000 0.0000 0.0000 -5.0970 1.8683 -0.4960 -1.9298 3.2377 20.3733 7.4513 0.1505 -12.4978 0.0000 0.0000 -0.0000
3.7788 38.8356 -19.3389 -175.4680 -55.3484 168.0090 0.0000 0.0000 0.0000 -2.4934 2.3520 -8.9762 -7.7285 -7.7562 38.6367 9.9458 -0.6160 -4.4621 0.0000 -0.0000 0.0000 0.0000 0.0000 0.0000 -1.0055 -1.5032 9.8064 4.7456 -2.5389 0.9099 -0.0000 0.0000 -0.0000 -3.1099 10.9427 5.3785 -0.0000 0.0000 -0.0000 -33.5072 -2.6352 2.4269 -44.1524 -22.8336 -14.0335 -11.2575 5.0341 50.9197 16.1513 -3.9464 -1.2713 -0.0000 0.0000 -0.0000 34.8091 5.2082 3.5570 40.3195 2.7914 -15.3065 11.2009 3.3936 20.4490 -11.8038 2.4078 -0.7737 0.0000 0.0000 0.0000 -4.7244 2.1390 0.8738 -2.9724 1.0886 19.8653 7.6840 0.1862 -12.9537 0.0000 0.0000 -0.0000
3.2234 38.9065 -19.6624 -174.8440 -57.1792 167.5660 0.0000 0.0000 0.0000 -2.1886 5.5895 -10.1479 -7.1677 -8.8917 32.6177 9.0780 -0.5477 -4.6702 0.0000 -0.0000 0.0000 0.0000 0.0000 0.0000 -0.8833 -1.5611 9.7483 4.8247 -2.6339 1.0745 -0.0000 0.0000 -0.0000 -2.8231 10.3990 5.1622 -0.0000 0.0000 -0.0000 -33.5568 -2.6626 2.4408 -44.5638 -23.6229 -12.3115 -12.0711 5.0754 49.1905 16.2707 -4.2479 -1.3212 -0.0000 0.0000 -0.0000 34.6723 5.1894 3.5373 40.1898 3.0574 -15.7748 11.0194 3.3938 20.2480 -11.8659 2.3130 -0.7689 0.0000 0.0000 0.0000 -4.4302 2.2761 2.3329 -3.7783 -0.9145 19.0107 7.8231 0.1973 -13.0760 0.0000 0.0000 -0.0000
2.6544 39.0073 -19.9703 -174.2920 -58.9190 167.3090 0.0000 0.0000 0.0000 -2.0109 8.3668 -11.2059 -6.0955 -9.6218 26.0280 7.3940 -0.4601 -4.4703 0.0000 -0.0000 0.0000 0.0000 0.0000 0.0000 -0.7269 -1.5214 9.5521 4.8568 -2.6062 1.1462 -0.0000 0.0000 -0.0000 -2.5996 9.7853 5.1451 -0.0000 0.0000 -0.0000 -33.6974 -2.7222 2.4732 -44.9942 -23.8431 -10.4864 -12.9269 5.1269 47.0404 16.2771 -4.4607 -1.3502 -0.0000 0.0000 -0.0000 34.4921 5.1589 3.5090 40.0818 3.2992 -16.4248 10.7996 2.9884 20.1225 -11.6882 2.3242 -0.7580 0.0000 0.0000 0.0000 -4.1835 2.4025 3.8667 -4.4854 -2.8730 17.6699 8.3524 0.1870 -12.8450 0.0000 0.0000 -0.0000
2.0794 39.1072 -20.2514 -173.6970 -60.6265 167.1650 0.0000 0.0000 0.0000 -1.7157 9.5920 -12.2982 -4.4575 -9.2541 19.2589 6.6167 -0.4649 -3.5551 0.0000 -0.0000 0.0000 0.0000 0.0000 0.0000 -0.3971 -1.4739 9.3114 4.7539 -2.5235 1.0508 -0.0000 0.0000 -0.0000 -2.5252 9.3361 5.1904 -0.0000 0.0000 -0.0000 -33.8514 -2.7529 2.4951 -45.4672 -23.6112 -8.6475 -13.7494 5.1682 44.6663 16.2312 -4.5389 -1.3567 -0.0000 0.0000 -0.0000 34.3347 5.1298 3.4835 39.8780 3.4648 -16.7835 10.7150 2.4295 20.0141 -11.5289 2.3777 -0.7523 0.0000 0.0000 0.0000 -3.9058 2.5920 5.2830 -5.0901 -4.7796 16.1723 9.2530 0.1727 -12.5413 0.0000 0.0000 -0.0000
